<svg width="2088" height="688" viewBox="0 0 2088 688" fill="none" xmlns="http://www.w3.org/2000/svg">
<g clip-path="url(#clip0_46_7611)">
<path fill-rule="evenodd" clip-rule="evenodd" d="M1707 0H1759C1841.51 7.6 1912.85 39.6 1973 96C1967.72 100.14 1961.72 102.97 1955 104.5C1954.47 111.14 1956.81 116.81 1962 121.5C1964 122.83 1966 124.17 1968 125.5C1971.01 125.63 1974.01 125.63 1977 125.5C1969.97 139.85 1962.13 153.68 1953.5 167C1932.89 195.95 1910.39 223.45 1886 249.5C1879.64 255.52 1872.48 260.36 1864.5 264C1863.24 263.74 1862.24 263.07 1861.5 262C1858.89 246.13 1859.89 230.46 1864.5 215C1865 213.17 1866.17 212 1868 211.5C1890.53 207.49 1909.7 197.32 1925.5 181C1935.22 170.56 1939.55 158.22 1938.5 144C1934.93 139.47 1930.43 136.3 1925 134.5C1927.15 133.09 1929.48 132.26 1932 132C1927.96 118.64 1918.96 112.14 1905 112.5C1897.89 115.28 1891.55 119.28 1886 124.5C1865.96 142.77 1850.46 164.27 1839.5 189C1829.12 212.09 1828.45 235.42 1837.5 259C1841.27 268.06 1847.43 274.9 1856 279.5C1864.78 281.31 1872.78 279.64 1880 274.5C1895.43 262.4 1909.6 248.9 1922.5 234C1937.55 216.88 1951.89 199.22 1965.5 181C1976.76 162.82 1987.26 144.15 1997 125C1997.46 124.2 1998.12 123.87 1999 124C2004.1 131.22 2009.44 138.22 2015 145C2005.55 168.52 1996.38 192.19 1987.5 216C1985.7 221.2 1984.53 226.53 1984 232C1987.5 244.68 1995.5 253.51 2008 258.5C2011.67 259.17 2015.33 259.17 2019 258.5C2023.53 254.3 2027.7 249.8 2031.5 245C2038.44 234.76 2045.61 224.76 2053 215C2079.14 282.73 2084.31 352.07 2068.5 423C2039.66 533.49 1973.5 612.66 1870 660.5C1834.31 675.51 1797.31 684.67 1759 688H1707C1628.23 681.21 1559.56 651.54 1501 599C1522.47 583.71 1542.3 566.38 1560.5 547C1570.51 535.65 1578.51 522.98 1584.5 509C1591.92 489.53 1588.09 472.69 1573 458.5C1544.23 436.36 1511.73 425.86 1475.5 427C1474.76 423.72 1475.42 420.72 1477.5 418C1490.48 404.42 1505.98 394.75 1524 389C1524.67 392 1525.33 395 1526 398C1527.31 406.81 1532.15 412.81 1540.5 416C1541.72 415.64 1542.89 415.14 1544 414.5C1543.94 407.76 1545.78 401.59 1549.5 396C1558.41 385.09 1568.58 375.59 1580 367.5C1584.65 363.71 1586.15 358.88 1584.5 353C1583.5 346.14 1580.33 340.64 1575 336.5C1569.3 335.18 1564.3 336.52 1560 340.5C1517.18 345.83 1482.34 365.33 1455.5 399C1450.66 406 1446.33 413.34 1442.5 421C1441.49 425.61 1442.16 429.95 1444.5 434C1449.97 442.1 1455.8 449.93 1462 457.5C1483.68 458.04 1505.02 461.04 1526 466.5C1536.61 469.31 1546.28 473.97 1555 480.5C1560.07 486.77 1560.24 493.27 1555.5 500C1541.48 519.35 1525.32 536.85 1507 552.5C1497.73 560.95 1488.06 568.78 1478 576C1469.64 565.97 1461.3 555.97 1453 546C1473.79 530.1 1496.79 518.1 1522 510C1523.66 497.5 1518.66 488.67 1507 483.5C1496.8 482.8 1487.14 484.8 1478 489.5C1462.63 497.18 1447.63 505.35 1433 514C1408.82 470.78 1394.48 424.44 1390 375C1400.35 389.95 1410.18 389.61 1419.5 374C1425.03 364.28 1430.03 354.28 1434.5 344C1446.89 313.49 1458.89 282.83 1470.5 252C1483.02 248.99 1494.86 244.16 1506 237.5C1539.83 218.81 1569.67 194.98 1595.5 166C1609.04 150.26 1618.37 132.26 1623.5 112C1626.71 98.43 1624.71 85.77 1617.5 74C1612 67.91 1605.16 65.74 1597 67.5C1585.05 70.64 1574.38 76.14 1565 84C1558.88 70.57 1548.88 66.4 1535 71.5C1520.62 85.11 1508.79 100.61 1499.5 118C1480.68 151.45 1464.34 186.12 1450.5 222C1437.95 258.31 1424.62 294.31 1410.5 330C1406.28 340.11 1401.28 349.77 1395.5 359C1393.57 361.04 1391.41 362.71 1389 364C1385.72 231.39 1438.39 127.89 1547 53.5C1596.13 22.96 1649.46 5.12 1707 0Z" fill="#D04407"/>
<path opacity="0.99" fill-rule="evenodd" clip-rule="evenodd" d="M2035 179C2026.72 194.97 2019.89 211.64 2014.5 229C2013.83 231.33 2013.83 233.67 2014.5 236C2024.52 221.95 2034.02 207.62 2043 193C2053.85 176.48 2064.85 159.98 2076 143.5C2082.2 143.86 2086.2 147.03 2088 153V159C2076.35 177.63 2064.68 196.3 2053 215C2045.61 224.76 2038.44 234.76 2031.5 245C2027.7 249.8 2023.53 254.3 2019 258.5C2015.33 259.17 2011.67 259.17 2008 258.5C1995.5 253.51 1987.5 244.68 1984 232C1984.53 226.53 1985.7 221.2 1987.5 216C1996.38 192.19 2005.55 168.52 2015 145C2019.86 132.43 2024.52 119.77 2029 107C2028.14 105.92 2027.14 105.75 2026 106.5C2018.45 110.11 2010.78 113.44 2003 116.5C2001.01 118.66 1999.67 121.16 1999 124C1998.12 123.87 1997.46 124.2 1997 125C1987.26 144.15 1976.76 162.82 1965.5 181C1951.89 199.22 1937.55 216.88 1922.5 234C1909.6 248.9 1895.43 262.4 1880 274.5C1872.78 279.64 1864.78 281.31 1856 279.5C1847.43 274.9 1841.27 268.06 1837.5 259C1828.45 235.42 1829.12 212.09 1839.5 189C1850.46 164.27 1865.96 142.77 1886 124.5C1891.55 119.28 1897.89 115.28 1905 112.5C1918.96 112.14 1927.96 118.64 1932 132C1929.48 132.26 1927.15 133.09 1925 134.5C1930.43 136.3 1934.93 139.47 1938.5 144C1939.55 158.22 1935.22 170.56 1925.5 181C1909.7 197.32 1890.53 207.49 1868 211.5C1866.17 212 1865 213.17 1864.5 215C1859.89 230.46 1858.89 246.13 1861.5 262C1862.24 263.07 1863.24 263.74 1864.5 264C1872.48 260.36 1879.64 255.52 1886 249.5C1910.39 223.45 1932.89 195.95 1953.5 167C1962.13 153.68 1969.97 139.85 1977 125.5C1974.01 125.63 1971.01 125.63 1968 125.5C1966 124.17 1964 122.83 1962 121.5C1956.81 116.81 1954.47 111.14 1955 104.5C1961.72 102.97 1967.72 100.14 1973 96C1995.27 83.57 2017.44 70.91 2039.5 58C2055.52 64.35 2066.52 75.68 2072.5 92C2072.83 94.71 2072.49 97.37 2071.5 100C2060.2 126.74 2048.03 153.08 2035 179Z" fill="#FFFDFD"/>
<path fill-rule="evenodd" clip-rule="evenodd" d="M1390 375C1389.16 371.4 1388.82 367.73 1389 364C1391.41 362.71 1393.57 361.04 1395.5 359C1401.28 349.77 1406.28 340.11 1410.5 330C1424.62 294.31 1437.95 258.31 1450.5 222C1464.34 186.12 1480.68 151.45 1499.5 118C1508.79 100.61 1520.62 85.1099 1535 71.4999C1548.88 66.3999 1558.88 70.5699 1565 83.9999C1574.38 76.1399 1585.05 70.6399 1597 67.4999C1605.16 65.7399 1612 67.9099 1617.5 73.9999C1624.71 85.7699 1626.71 98.43 1623.5 112C1618.37 132.26 1609.04 150.26 1595.5 166C1569.67 194.98 1539.83 218.81 1506 237.5C1494.86 244.16 1483.02 248.99 1470.5 252C1458.89 282.83 1446.89 313.49 1434.5 344C1430.03 354.28 1425.03 364.28 1419.5 374C1410.18 389.61 1400.35 389.95 1390 375Z" fill="#FFFDFC"/>
<path fill-rule="evenodd" clip-rule="evenodd" d="M1831 71.0001C1844.85 70.8401 1856.02 76.1801 1864.5 87.0001C1866.27 103.92 1863.94 120.25 1857.5 136C1836.92 188.9 1805.08 233.73 1762 270.5C1753.51 277.41 1743.84 281.58 1733 283C1729.38 283.26 1726.04 282.42 1723 280.5C1719.4 277.12 1716.4 273.29 1714 269C1706.68 279.63 1699.85 290.63 1693.5 302C1679.22 314.71 1668.22 312.38 1660.5 295C1657.28 284.25 1655.45 273.25 1655 262C1647.49 267.72 1639.66 268.39 1631.5 264C1622.71 282.13 1608.87 294.63 1590 301.5C1575.59 304.47 1563.42 300.64 1553.5 290C1548.83 278.02 1547.83 265.69 1550.5 253C1560.34 216.84 1579.51 186.67 1608 162.5C1612.07 159.44 1616.4 156.77 1621 154.5C1628.63 152.77 1635.46 154.27 1641.5 159C1642.98 154.84 1645.82 153.34 1650 154.5C1664.03 163.26 1669.53 175.76 1666.5 192C1659.18 210.97 1650.52 229.3 1640.5 247C1636.9 257.71 1638.9 258.71 1646.5 250C1650.83 244.33 1655.17 238.67 1659.5 233C1668.27 191.14 1684.93 152.81 1709.5 118C1723.19 100.48 1736.52 100.82 1749.5 119C1752.01 122.32 1753.01 125.99 1752.5 130C1737.45 144.1 1724.78 160.1 1714.5 178C1699.3 203.73 1687.97 231.06 1680.5 260C1678.02 270.58 1677.52 281.24 1679 292C1682.05 289.11 1684.55 285.78 1686.5 282C1692.17 270.33 1697.83 258.67 1703.5 247C1714.41 208.65 1733.91 175.49 1762 147.5C1776.63 140.81 1786.63 145.14 1792 160.5C1785.62 168.89 1778.45 176.72 1770.5 184C1755.7 200.26 1743.36 218.26 1733.5 238C1729.39 246.73 1728.39 255.73 1730.5 265C1731.97 266.83 1733.8 267.33 1736 266.5C1740.3 264.68 1744.3 262.35 1748 259.5C1786.4 220.9 1812.56 175.07 1826.5 122C1829.83 106.79 1830.67 91.4601 1829 76.0001C1828.94 73.9901 1829.6 72.3201 1831 71.0001Z" fill="#FFFDFC"/>
<path fill-rule="evenodd" clip-rule="evenodd" d="M1585 90.0001C1593.51 88.9701 1596.34 92.6401 1593.5 101C1586.41 119.85 1576.74 137.18 1564.5 153C1542.71 182.46 1517.21 208.29 1488 230.5C1484.9 232.54 1481.56 233.54 1478 233.5C1495.39 193.84 1517.22 157 1543.5 123C1550.67 115.83 1557.83 108.67 1565 101.5C1571.57 97.3901 1578.23 93.5501 1585 90.0001Z" fill="#D04407"/>
<path opacity="0.99" fill-rule="evenodd" clip-rule="evenodd" d="M0 546V432H152C151.83 454 152 476 152.5 498C163.17 487.33 173.83 476.67 184.5 466C185 359 185.17 252 185 145H337C337.17 278.67 337 412.33 336.5 546L289 593.5C208.67 594.17 128.33 594.17 48 593.5C32.13 577.47 16.13 561.63 0 546Z" fill="#FEFFFE"/>
<path fill-rule="evenodd" clip-rule="evenodd" d="M370 145C466 144.83 562 145 658 145.5C673.83 161.33 689.67 177.17 705.5 193C706.17 310.67 706.17 428.33 705.5 546L658 593.5C562 594 466 594.17 370 594V145ZM522 274H554C554.17 327.33 554 380.67 553.5 434L522.5 465C522 401.33 521.83 337.67 522 274Z" fill="#FEFFFE"/>
<path opacity="0.99" fill-rule="evenodd" clip-rule="evenodd" d="M739 145C810 144.83 881 145 952 145.5C967.83 161.33 983.67 177.17 999.5 193C1015.33 177.17 1031.17 161.33 1047 145.5C1118.33 145 1189.67 144.83 1261 145V594H1108C1108.17 498.67 1108 403.33 1107.5 308C1097.17 318.33 1086.83 328.67 1076.5 339C1076 424 1075.83 509 1076 594H924C924.17 498.67 924 403.33 923.5 308L891.5 340C891 424.67 890.83 509.33 891 594H739V145Z" fill="#FEFFFE"/>
<path fill-rule="evenodd" clip-rule="evenodd" d="M1908 146C1910.48 162.23 1904.81 175.07 1891 184.5C1886.38 186.76 1881.71 188.93 1877 191C1875.98 190.5 1875.81 189.83 1876.5 189C1885.29 173.38 1895.79 159.05 1908 146Z" fill="#D04407"/>
<path opacity="0.97" fill-rule="evenodd" clip-rule="evenodd" d="M2035 179C2038.16 183.31 2040.82 187.97 2043 193C2034.02 207.62 2024.52 221.95 2014.5 236C2013.83 233.67 2013.83 231.33 2014.5 229C2019.89 211.64 2026.72 194.97 2035 179Z" fill="#D04407"/>
<path fill-rule="evenodd" clip-rule="evenodd" d="M1628 185C1628.54 185.06 1628.88 185.39 1629 186C1622.68 199.47 1617.84 213.47 1614.5 228C1613.87 233.68 1614.04 239.35 1615 245C1614.98 247.13 1614.48 249.13 1613.5 251C1607.32 260.68 1600.66 270.02 1593.5 279C1589.97 282.87 1586.13 286.37 1582 289.5C1576.98 292.41 1573.65 291.24 1572 286C1573.31 275.9 1576.14 266.24 1580.5 257C1592.62 230.4 1608.45 206.4 1628 185Z" fill="#D04407"/>
<path fill-rule="evenodd" clip-rule="evenodd" d="M1707 311C1710.44 310.8 1713.77 311.3 1717 312.5C1724.26 317.43 1729.76 323.93 1733.5 332C1734.17 333 1734.17 334 1733.5 335C1708.45 367.05 1683.78 399.38 1659.5 432C1652.44 442.74 1645.77 453.74 1639.5 465C1636.26 470.61 1634.93 476.61 1635.5 483C1665.31 452.19 1694.81 421.02 1724 389.5C1726.96 387.17 1730.29 386.5 1734 387.5C1747.35 393.7 1752.52 403.86 1749.5 418C1735.1 446.46 1720.44 474.79 1705.5 503C1702.11 510.51 1699.11 518.17 1696.5 526C1695.68 529.38 1695.84 532.72 1697 536C1707.65 521.38 1717.82 506.38 1727.5 491C1738.2 459.45 1756.03 432.61 1781 410.5C1785.16 407.25 1789.49 404.25 1794 401.5C1802.11 398.84 1809.61 400.01 1816.5 405C1818.83 400.25 1822.33 399.08 1827 401.5C1842.11 412.87 1846.27 427.37 1839.5 445C1831.44 462.12 1823.11 479.12 1814.5 496C1813.69 498.08 1813.86 500.08 1815 502C1827.59 489.48 1838.76 475.81 1848.5 461C1861.31 433.38 1875.64 406.71 1891.5 381C1894.3 377.2 1897.46 373.7 1901 370.5C1907.51 369.63 1913.51 370.96 1919 374.5C1920.78 376.74 1921.28 379.24 1920.5 382C1916.9 387.87 1913.9 393.87 1911.5 400C1918.11 394.06 1925.27 388.89 1933 384.5C1948.73 380.21 1958.57 386.04 1962.5 402C1965.06 422.22 1962.06 441.55 1953.5 460C1940.15 488.35 1920.65 511.51 1895 529.5C1888.89 531.91 1882.55 532.58 1876 531.5C1870.79 529.25 1867.29 525.42 1865.5 520C1863.59 511.45 1862.59 502.78 1862.5 494C1841.89 538.09 1829.23 584.42 1824.5 633C1824.13 633.92 1823.63 634.75 1823 635.5C1808.24 637.54 1798.07 631.71 1792.5 618C1791.87 612.29 1792.2 606.62 1793.5 601C1801.54 570.26 1812.38 540.59 1826 512C1825.67 511.67 1825.33 511.33 1825 511C1822.21 512.49 1819.21 513.15 1816 513C1812.48 512.94 1809.15 512.44 1806 511.5C1798.92 526 1788.25 537 1774 544.5C1756.77 552.32 1741.6 549.49 1728.5 536C1727.16 533.3 1725.83 530.63 1724.5 528C1712.47 545.2 1700.64 562.53 1689 580C1675.07 581.94 1665.57 576.28 1660.5 563C1657.45 537.99 1661.11 513.99 1671.5 491C1678.24 476.86 1684.91 462.86 1691.5 449C1670.02 469.8 1650.02 491.8 1631.5 515C1625.07 523.53 1619.4 532.53 1614.5 542C1616.42 551.74 1612.59 555.91 1603 554.5C1596.73 549.12 1593.23 542.28 1592.5 534C1590.35 514.86 1592.35 496.19 1598.5 478C1618.42 424.47 1646.75 376.14 1683.5 333C1690.93 325.07 1698.76 317.73 1707 311Z" fill="#FFFDFD"/>
<path opacity="0.99" fill-rule="evenodd" clip-rule="evenodd" d="M1526 398C1526.32 394.6 1525.99 391.27 1525 388C1524.39 388.12 1524.06 388.46 1524 389C1505.98 394.75 1490.48 404.42 1477.5 418C1475.42 420.72 1474.76 423.72 1475.5 427C1511.73 425.86 1544.23 436.36 1573 458.5C1588.09 472.69 1591.92 489.53 1584.5 509C1578.51 522.98 1570.51 535.65 1560.5 547C1542.3 566.38 1522.47 583.71 1501 599C1470.25 621.71 1436.59 639.21 1400 651.5C1386.3 656.03 1372.63 656.03 1359 651.5C1346.69 645.91 1340.36 636.24 1340 622.5C1341.26 611.06 1345.09 600.56 1351.5 591C1367.58 567.58 1387.08 547.41 1410 530.5C1417.73 524.98 1425.4 519.48 1433 514C1447.63 505.35 1462.63 497.18 1478 489.5C1487.14 484.8 1496.8 482.8 1507 483.5C1518.66 488.67 1523.66 497.5 1522 510C1496.79 518.1 1473.79 530.1 1453 546C1429.34 560.47 1407.51 577.47 1387.5 597C1382.45 603.05 1377.78 609.39 1373.5 616C1369.59 624.73 1372.09 630.4 1381 633C1394.15 630.76 1406.48 626.26 1418 619.5C1439.58 607.07 1459.58 592.57 1478 576C1488.06 568.78 1497.73 560.95 1507 552.5C1525.32 536.85 1541.48 519.35 1555.5 500C1560.24 493.27 1560.07 486.77 1555 480.5C1546.28 473.97 1536.61 469.31 1526 466.5C1505.02 461.04 1483.68 458.04 1462 457.5C1455.8 449.93 1449.97 442.1 1444.5 434C1442.16 429.95 1441.49 425.61 1442.5 421C1446.33 413.34 1450.66 406 1455.5 399C1482.34 365.33 1517.18 345.83 1560 340.5C1564.3 336.52 1569.3 335.18 1575 336.5C1580.33 340.64 1583.5 346.14 1584.5 353C1586.15 358.88 1584.65 363.71 1580 367.5C1568.58 375.59 1558.41 385.09 1549.5 396C1545.78 401.59 1543.94 407.76 1544 414.5C1542.89 415.14 1541.72 415.64 1540.5 416C1532.15 412.81 1527.31 406.81 1526 398Z" fill="#FFFDFD"/>
<path fill-rule="evenodd" clip-rule="evenodd" d="M1524 389C1524.06 388.46 1524.39 388.12 1525 388C1525.99 391.27 1526.32 394.6 1526 398C1525.33 395 1524.67 392 1524 389Z" fill="#D04407"/>
<path fill-rule="evenodd" clip-rule="evenodd" d="M1926 410H1930C1922.78 435.77 1911.28 459.44 1895.5 481C1892.33 484.17 1889.17 487.33 1886 490.5C1884.15 491.63 1882.15 492.13 1880 492C1879.83 488.65 1880 485.32 1880.5 482C1887.33 452.65 1902.5 428.65 1926 410Z" fill="#D04407"/>
<path fill-rule="evenodd" clip-rule="evenodd" d="M1803 432C1803.54 432.06 1803.88 432.39 1804 433C1796.09 448.23 1791.09 464.4 1789 481.5C1789.29 485.41 1789.96 489.24 1791 493C1782.1 508.74 1771.1 522.91 1758 535.5C1751.29 540.05 1747.96 538.39 1748 530.5C1750.71 514.37 1756.21 499.21 1764.5 485C1775.23 465.77 1788.06 448.11 1803 432Z" fill="#D04407"/>
</g>
<defs>
<clipPath id="clip0_46_7611">
<rect width="2088" height="688" fill="white"/>
</clipPath>
</defs>
</svg>
