<svg width="2088" height="688" viewBox="0 0 2088 688" fill="none" xmlns="http://www.w3.org/2000/svg">
<g clip-path="url(#clip0_152_985)">
<path fill-rule="evenodd" clip-rule="evenodd" d="M1707 0H1759C1841.51 7.6 1912.85 39.6 1973 96C1967.72 100.14 1961.72 102.97 1955 104.5C1954.47 111.14 1956.81 116.81 1962 121.5C1964 122.83 1966 124.17 1968 125.5C1971.01 125.63 1974.01 125.63 1977 125.5C1969.97 139.85 1962.13 153.68 1953.5 167C1932.89 195.95 1910.39 223.45 1886 249.5C1879.64 255.52 1872.48 260.36 1864.5 264C1863.24 263.74 1862.24 263.07 1861.5 262C1858.89 246.13 1859.89 230.46 1864.5 215C1865 213.17 1866.17 212 1868 211.5C1890.53 207.49 1909.7 197.32 1925.5 181C1935.22 170.56 1939.55 158.22 1938.5 144C1934.93 139.47 1930.43 136.3 1925 134.5C1927.15 133.09 1929.48 132.26 1932 132C1927.96 118.64 1918.96 112.14 1905 112.5C1897.89 115.28 1891.55 119.28 1886 124.5C1865.96 142.77 1850.46 164.27 1839.5 189C1829.12 212.09 1828.45 235.42 1837.5 259C1841.27 268.06 1847.43 274.9 1856 279.5C1864.78 281.31 1872.78 279.64 1880 274.5C1895.43 262.4 1909.6 248.9 1922.5 234C1937.55 216.88 1951.89 199.22 1965.5 181C1976.76 162.82 1987.26 144.15 1997 125C1997.46 124.2 1998.12 123.87 1999 124C2004.1 131.22 2009.44 138.22 2015 145C2005.55 168.52 1996.38 192.19 1987.5 216C1985.7 221.2 1984.53 226.53 1984 232C1987.5 244.68 1995.5 253.51 2008 258.5C2011.67 259.17 2015.33 259.17 2019 258.5C2023.53 254.3 2027.7 249.8 2031.5 245C2038.44 234.76 2045.61 224.76 2053 215C2079.14 282.73 2084.31 352.07 2068.5 423C2039.66 533.49 1973.5 612.66 1870 660.5C1834.31 675.51 1797.31 684.67 1759 688H1707C1628.23 681.21 1559.56 651.54 1501 599C1522.47 583.71 1542.3 566.38 1560.5 547C1570.51 535.65 1578.51 522.98 1584.5 509C1591.92 489.53 1588.09 472.69 1573 458.5C1544.23 436.36 1511.73 425.86 1475.5 427C1474.76 423.72 1475.42 420.72 1477.5 418C1490.48 404.42 1505.98 394.75 1524 389C1524.67 392 1525.33 395 1526 398C1527.31 406.81 1532.15 412.81 1540.5 416C1541.72 415.64 1542.89 415.14 1544 414.5C1543.94 407.76 1545.78 401.59 1549.5 396C1558.41 385.09 1568.58 375.59 1580 367.5C1584.65 363.71 1586.15 358.88 1584.5 353C1583.5 346.14 1580.33 340.64 1575 336.5C1569.3 335.18 1564.3 336.52 1560 340.5C1517.18 345.83 1482.34 365.33 1455.5 399C1450.66 406 1446.33 413.34 1442.5 421C1441.49 425.61 1442.16 429.95 1444.5 434C1449.97 442.1 1455.8 449.93 1462 457.5C1483.68 458.04 1505.02 461.04 1526 466.5C1536.61 469.31 1546.28 473.97 1555 480.5C1560.07 486.77 1560.24 493.27 1555.5 500C1541.48 519.35 1525.32 536.85 1507 552.5C1497.73 560.95 1488.06 568.78 1478 576C1469.64 565.97 1461.3 555.97 1453 546C1473.79 530.1 1496.79 518.1 1522 510C1523.66 497.5 1518.66 488.67 1507 483.5C1496.8 482.8 1487.14 484.8 1478 489.5C1462.63 497.18 1447.63 505.35 1433 514C1408.82 470.78 1394.48 424.44 1390 375C1400.35 389.95 1410.18 389.61 1419.5 374C1425.03 364.28 1430.03 354.28 1434.5 344C1446.89 313.49 1458.89 282.83 1470.5 252C1483.02 248.99 1494.86 244.16 1506 237.5C1539.83 218.81 1569.67 194.98 1595.5 166C1609.04 150.26 1618.37 132.26 1623.5 112C1626.71 98.43 1624.71 85.77 1617.5 74C1612 67.91 1605.16 65.74 1597 67.5C1585.05 70.64 1574.38 76.14 1565 84C1558.88 70.57 1548.88 66.4 1535 71.5C1520.62 85.11 1508.79 100.61 1499.5 118C1480.68 151.45 1464.34 186.12 1450.5 222C1437.95 258.31 1424.62 294.31 1410.5 330C1406.28 340.11 1401.28 349.77 1395.5 359C1393.57 361.04 1391.41 362.71 1389 364C1385.72 231.39 1438.39 127.89 1547 53.5C1596.13 22.96 1649.46 5.12 1707 0Z" fill="#D04407"/>
<path opacity="0.99" d="M1976.96 124.501C1974.09 124.626 1971.21 124.63 1968.32 124.513C1967.4 123.899 1966.48 123.284 1965.56 122.668C1964.58 122.015 1963.6 121.361 1962.62 120.709C1957.87 116.397 1955.67 111.28 1955.95 105.303C1962.49 103.712 1968.36 100.893 1973.56 96.8353C1995.67 84.4937 2017.68 71.9252 2039.58 59.1103C2055.05 65.3725 2065.69 76.3919 2071.52 92.2343C2071.81 94.7313 2071.49 97.1858 2070.57 99.6292C2059.28 126.341 2047.13 152.653 2034.11 178.546C2025.8 194.567 2018.95 211.29 2013.54 228.703L2013.54 228.714L2013.54 228.724C2012.82 231.234 2012.82 233.766 2013.54 236.276L2014.11 238.267L2015.31 236.581C2025.34 222.516 2034.85 208.172 2043.84 193.536C2054.58 177.185 2065.47 160.852 2076.5 144.54C2079.18 144.779 2081.34 145.592 2083.03 146.93C2084.81 148.338 2086.14 150.386 2087 153.149V158.713C2075.41 177.25 2063.8 195.826 2052.18 214.432C2044.79 224.185 2037.63 234.177 2030.69 244.408C2026.99 249.081 2022.94 253.467 2018.53 257.567C2015.11 258.158 2011.7 258.147 2008.28 257.534C1996.17 252.674 1988.44 244.155 1985.01 231.912C1985.54 226.59 1986.69 221.402 1988.44 216.338C1997.32 192.54 2006.48 168.881 2015.93 145.373L2015.93 145.361C2020.8 132.781 2025.46 120.111 2029.94 107.331L2030.13 106.809L2029.78 106.377C2029.25 105.715 2028.59 105.215 2027.77 105.077C2026.97 104.943 2026.2 105.185 2025.51 105.625C2018 109.214 2010.37 112.526 2002.63 115.569L2002.42 115.653L2002.26 115.822C2000.34 117.91 1998.99 120.306 1998.23 123.001C1997.94 123.04 1997.66 123.123 1997.4 123.257C1996.85 123.53 1996.44 123.973 1996.13 124.502L1996.12 124.524L1996.11 124.547C1986.39 143.659 1975.91 162.292 1964.67 180.436C1951.09 198.622 1936.77 216.25 1921.75 233.34L1921.74 233.345C1908.89 248.191 1894.77 261.642 1879.4 273.699C1872.45 278.637 1864.79 280.255 1856.34 278.55C1848.05 274.063 1842.09 267.427 1838.43 258.629C1829.48 235.303 1830.14 212.254 1840.41 189.41L1840.41 189.405C1851.32 164.802 1866.74 143.416 1886.67 125.239L1886.68 125.234L1886.68 125.228C1892.1 120.136 1898.28 116.226 1905.2 113.496C1911.94 113.35 1917.39 114.85 1921.63 117.916C1925.67 120.828 1928.7 125.219 1930.69 131.174C1928.47 131.565 1926.39 132.395 1924.45 133.664L1922.72 134.798L1924.69 135.449C1929.83 137.155 1934.11 140.13 1937.52 144.38C1938.47 158.19 1934.23 170.152 1924.77 180.311C1909.12 196.475 1890.15 206.543 1867.82 210.515L1867.78 210.523L1867.74 210.535C1865.57 211.128 1864.13 212.56 1863.54 214.725C1858.89 230.326 1857.88 246.146 1860.51 262.162L1860.55 262.384L1860.68 262.569C1861.56 263.846 1862.78 264.666 1864.3 264.979L1864.62 265.045L1864.91 264.91C1873 261.224 1880.25 256.321 1886.69 250.226L1886.71 250.206L1886.73 250.183C1911.15 224.101 1933.68 196.566 1954.31 167.58L1954.33 167.562L1954.34 167.544C1962.99 154.191 1970.85 140.326 1977.9 125.94L1978.64 124.428L1976.96 124.501Z" fill="black" stroke="white" stroke-width="2"/>
<path d="M1565.64 84.7664C1574.9 77.0069 1585.43 71.5767 1597.23 68.4728C1605.01 66.8018 1611.46 68.8405 1616.7 74.6018C1623.73 86.1194 1625.67 98.4796 1622.53 111.762C1617.44 131.867 1608.18 149.723 1594.75 165.342C1568.99 194.234 1539.24 217.991 1505.52 236.625L1505.5 236.633L1505.49 236.642C1494.43 243.25 1482.69 248.041 1470.27 251.028L1469.75 251.152L1469.56 251.648C1457.96 282.466 1445.96 313.114 1433.58 343.612C1429.12 353.852 1424.14 363.814 1418.64 373.496C1414.01 381.243 1409.47 384.812 1405.1 384.961C1400.76 385.108 1396.03 381.902 1390.93 374.587C1390.18 371.316 1389.86 367.986 1389.98 364.605C1392.28 363.302 1394.36 361.659 1396.23 359.687L1396.29 359.615L1396.35 359.531C1402.16 350.254 1407.18 340.546 1411.42 330.385L1411.43 330.377L1411.43 330.368C1425.55 294.67 1438.89 258.661 1451.44 222.343C1465.26 186.514 1481.58 151.893 1500.37 118.49L1500.38 118.481L1500.38 118.471C1509.59 101.237 1521.3 85.8703 1535.54 72.3684C1542.24 69.9403 1547.88 69.7866 1552.53 71.7242C1557.22 73.6803 1561.1 77.8449 1564.09 84.4146L1564.63 85.6105L1565.64 84.7664Z" fill="black" stroke="white" stroke-width="2"/>
<path d="M1713.18 268.433C1705.87 279.043 1699.05 290.02 1692.71 301.365C1685.7 307.57 1679.74 309.864 1674.75 308.806C1669.74 307.743 1665.25 303.212 1661.44 294.652C1658.26 284.002 1656.44 273.106 1656 261.96L1655.92 260.04L1654.39 261.205C1650.76 263.973 1647.1 265.48 1643.41 265.795C1639.72 266.109 1635.91 265.239 1631.97 263.119L1631.06 262.625L1630.6 263.564C1621.93 281.439 1608.32 293.749 1589.73 300.535C1575.75 303.396 1564 299.715 1554.36 289.458C1549.83 277.726 1548.86 265.663 1551.47 253.234C1561.26 217.291 1580.31 187.311 1608.62 163.282C1612.61 160.29 1616.84 157.676 1621.34 155.45C1628.63 153.825 1635.12 155.271 1640.88 159.787L1641.98 160.644L1642.44 159.335C1643.13 157.402 1644.08 156.234 1645.21 155.639C1646.3 155.06 1647.73 154.933 1649.59 155.426C1656.41 159.707 1661.09 164.854 1663.73 170.848C1666.38 176.855 1667 183.8 1665.53 191.726C1658.24 210.62 1649.61 228.877 1639.63 246.507L1639.58 246.591L1639.55 246.681C1638.65 249.375 1638.07 251.517 1637.86 253.077C1637.75 253.85 1637.73 254.548 1637.83 255.125C1637.93 255.688 1638.19 256.345 1638.85 256.677C1639.49 256.997 1640.18 256.844 1640.7 256.624C1641.25 256.394 1641.84 255.998 1642.48 255.492C1643.75 254.472 1645.34 252.848 1647.25 250.658L1647.27 250.633L1647.29 250.607C1649.46 247.777 1651.62 244.949 1653.78 242.121L1653.79 242.108L1653.81 242.084C1655.97 239.26 1658.14 236.435 1660.29 233.607L1660.43 233.427L1660.48 233.205C1669.22 191.486 1685.82 153.289 1710.3 118.597C1717.08 109.934 1723.56 105.957 1729.74 106.112C1735.93 106.268 1742.26 110.576 1748.69 119.581L1748.69 119.592L1748.7 119.603C1750.99 122.623 1751.92 125.917 1751.55 129.521C1736.55 143.626 1723.9 159.619 1713.64 177.497C1698.39 203.306 1687.02 230.721 1679.53 259.75L1679.53 259.761L1679.53 259.772C1677.02 270.471 1676.51 281.255 1678.01 292.136L1678.27 294.065L1679.69 292.726C1682.82 289.758 1685.39 286.338 1687.39 282.459L1687.39 282.448L1687.4 282.437C1690.23 276.602 1693.07 270.769 1695.9 264.937L1695.96 264.82C1698.77 259.027 1701.58 253.233 1704.4 247.437L1704.44 247.358L1704.46 247.274C1715.31 209.145 1734.68 176.178 1762.58 148.336C1769.69 145.118 1775.47 144.655 1780.07 146.649C1784.61 148.614 1788.25 153.076 1790.88 160.325C1784.62 168.503 1777.6 176.146 1769.82 183.263L1769.79 183.293L1769.76 183.327C1754.9 199.655 1742.51 217.731 1732.61 237.553L1732.6 237.564L1732.6 237.574C1728.39 246.503 1727.36 255.731 1729.52 265.222L1729.58 265.447L1729.72 265.626C1730.56 266.666 1731.55 267.395 1732.71 267.712C1733.88 268.03 1735.1 267.907 1736.35 267.436L1736.37 267.429L1736.39 267.421C1740.77 265.568 1744.84 263.195 1748.61 260.292L1748.66 260.252L1748.71 260.205C1787.23 221.479 1813.48 175.493 1827.47 122.254L1827.47 122.234L1827.48 122.214C1830.83 106.912 1831.67 91.487 1830 75.9327C1829.96 74.3444 1830.43 73.0525 1831.42 71.9969C1844.67 71.9486 1855.35 77.075 1863.53 87.3913C1865.23 104.045 1862.92 120.114 1856.57 135.622L1856.57 135.63L1856.57 135.638C1836.05 188.38 1804.31 233.071 1761.36 269.732C1753.02 276.514 1743.54 280.606 1732.9 282.005C1729.53 282.241 1726.44 281.47 1723.61 279.705C1720.12 276.411 1717.21 272.684 1714.87 268.512L1714.09 267.109L1713.18 268.433Z" fill="black" stroke="white" stroke-width="2"/>
<path fill-rule="evenodd" clip-rule="evenodd" d="M1585 90.0001C1593.51 88.9701 1596.34 92.6401 1593.5 101C1586.41 119.85 1576.74 137.18 1564.5 153C1542.71 182.46 1517.21 208.29 1488 230.5C1484.9 232.54 1481.56 233.54 1478 233.5C1495.39 193.84 1517.22 157 1543.5 123C1550.67 115.83 1557.83 108.67 1565 101.5C1571.57 97.3901 1578.23 93.5501 1585 90.0001Z" fill="#D04407"/>
<path opacity="0.99" fill-rule="evenodd" clip-rule="evenodd" d="M0 546V432H152C151.83 454 152 476 152.5 498C163.17 487.33 173.83 476.67 184.5 466C185 359 185.17 252 185 145H337C337.17 278.67 337 412.33 336.5 546L289 593.5C208.67 594.17 128.33 594.17 48 593.5C32.13 577.47 16.13 561.63 0 546Z" fill="black"/>
<path fill-rule="evenodd" clip-rule="evenodd" d="M370 145C466 144.83 562 145 658 145.5C673.83 161.33 689.67 177.17 705.5 193C706.17 310.67 706.17 428.33 705.5 546L658 593.5C562 594 466 594.17 370 594V145ZM522 274H554C554.17 327.33 554 380.67 553.5 434L522.5 465C522 401.33 521.83 337.67 522 274Z" fill="black"/>
<path opacity="0.99" fill-rule="evenodd" clip-rule="evenodd" d="M739 145C810 144.83 881 145 952 145.5C967.83 161.33 983.67 177.17 999.5 193C1015.33 177.17 1031.17 161.33 1047 145.5C1118.33 145 1189.67 144.83 1261 145V594H1108C1108.17 498.67 1108 403.33 1107.5 308C1097.17 318.33 1086.83 328.67 1076.5 339C1076 424 1075.83 509 1076 594H924C924.17 498.67 924 403.33 923.5 308L891.5 340C891 424.67 890.83 509.33 891 594H739V145Z" fill="black"/>
<path fill-rule="evenodd" clip-rule="evenodd" d="M1908 146C1910.48 162.23 1904.81 175.07 1891 184.5C1886.38 186.76 1881.71 188.93 1877 191C1875.98 190.5 1875.81 189.83 1876.5 189C1885.29 173.38 1895.79 159.05 1908 146Z" fill="#D04407"/>
<path opacity="0.97" fill-rule="evenodd" clip-rule="evenodd" d="M2035 179C2038.16 183.31 2040.82 187.97 2043 193C2034.02 207.62 2024.52 221.95 2014.5 236C2013.83 233.67 2013.83 231.33 2014.5 229C2019.89 211.64 2026.72 194.97 2035 179Z" fill="#D04407"/>
<path fill-rule="evenodd" clip-rule="evenodd" d="M1628 185C1628.54 185.06 1628.88 185.39 1629 186C1622.68 199.47 1617.84 213.47 1614.5 228C1613.87 233.68 1614.04 239.35 1615 245C1614.98 247.13 1614.48 249.13 1613.5 251C1607.32 260.68 1600.66 270.02 1593.5 279C1589.97 282.87 1586.13 286.37 1582 289.5C1576.98 292.41 1573.65 291.24 1572 286C1573.31 275.9 1576.14 266.24 1580.5 257C1592.62 230.4 1608.45 206.4 1628 185Z" fill="#D04407"/>
<path d="M1636.22 483.695C1666.02 452.899 1695.5 421.743 1724.68 390.238C1727.35 388.163 1730.31 387.563 1733.66 388.444C1740.15 391.472 1744.55 395.414 1747 400.226C1749.44 405.025 1749.99 410.813 1748.55 417.665C1734.17 446.08 1719.53 474.366 1704.62 502.532L1704.6 502.56L1704.59 502.588C1701.18 510.129 1698.17 517.821 1695.55 525.684L1695.54 525.723L1695.53 525.764C1694.66 529.331 1694.83 532.868 1696.06 536.333L1696.69 538.123L1697.81 536.589C1708.47 521.95 1718.65 506.932 1728.35 491.533L1728.41 491.433L1728.45 491.321C1739.09 459.946 1756.81 433.26 1781.64 411.269C1785.73 408.074 1789.99 405.122 1794.42 402.414C1802.18 399.9 1809.31 401.031 1815.91 405.81L1816.87 406.506L1817.4 405.44C1818.5 403.2 1819.79 401.978 1821.19 401.51C1822.57 401.048 1824.3 401.244 1826.47 402.35C1833.85 407.925 1838.49 414.206 1840.49 421.178C1842.5 428.163 1841.9 435.957 1838.58 444.607C1830.53 461.707 1822.21 478.686 1813.61 495.546L1813.59 495.59L1813.57 495.637C1812.65 498.006 1812.84 500.328 1814.14 502.51L1814.8 503.614L1815.71 502.709C1828.34 490.141 1839.56 476.417 1849.34 461.549L1849.38 461.488L1849.41 461.421C1862.19 433.849 1876.5 407.225 1892.33 381.56C1895.02 377.909 1898.05 374.54 1901.44 371.452C1907.54 370.701 1913.15 371.963 1918.32 375.25C1919.79 377.167 1920.2 379.252 1919.57 381.598C1915.98 387.478 1912.97 393.49 1910.57 399.635L1912.17 400.744C1918.69 394.879 1925.76 389.773 1933.38 385.432C1941.04 383.365 1947.09 383.802 1951.66 386.516C1956.26 389.239 1959.58 394.38 1961.52 402.183C1964.04 422.195 1961.07 441.316 1952.59 459.576C1939.34 487.732 1919.98 510.733 1894.52 528.613C1888.65 530.906 1882.58 531.549 1876.28 530.533C1871.42 528.397 1868.16 524.819 1866.46 519.733C1864.58 511.267 1863.59 502.683 1863.5 493.99L1861.59 493.576C1840.96 537.725 1828.27 584.117 1823.52 632.756C1823.24 633.408 1822.9 634.008 1822.47 634.562C1815.42 635.473 1809.56 634.517 1804.8 631.789C1799.99 629.028 1796.2 624.387 1793.48 617.752C1792.88 612.205 1793.21 606.699 1794.47 601.239C1802.49 570.565 1813.31 540.959 1826.9 512.43L1827.21 511.792L1826.71 511.293L1826.71 511.291L1826.7 511.289L1826.7 511.287L1826.7 511.285L1826.7 511.283L1826.7 511.281L1826.69 511.279L1826.69 511.277L1826.69 511.275L1826.69 511.273L1826.69 511.271L1826.68 511.27L1826.68 511.268L1826.68 511.266L1826.68 511.264L1826.68 511.262L1826.67 511.26L1826.67 511.258L1826.67 511.256L1826.67 511.254L1826.67 511.252L1826.66 511.25L1826.66 511.248L1826.66 511.246L1826.66 511.244L1826.66 511.242L1826.65 511.24L1826.65 511.239L1826.65 511.237L1826.65 511.235L1826.65 511.233L1826.65 511.231L1826.64 511.229L1826.64 511.227L1826.64 511.225L1826.64 511.223L1826.64 511.221L1826.63 511.219L1826.63 511.217L1826.63 511.215L1826.63 511.213L1826.63 511.211L1826.62 511.209L1826.62 511.208L1826.62 511.206L1826.62 511.204L1826.62 511.202L1826.61 511.2L1826.61 511.198L1826.61 511.196L1826.61 511.194L1826.61 511.192L1826.6 511.19L1826.6 511.188L1826.6 511.186L1826.6 511.184L1826.6 511.182L1826.59 511.18L1826.59 511.178L1826.59 511.176L1826.59 511.174L1826.59 511.173L1826.58 511.171L1826.58 511.169L1826.58 511.167L1826.58 511.165L1826.58 511.163L1826.58 511.161L1826.57 511.159L1826.57 511.157L1826.57 511.155L1826.57 511.153L1826.57 511.151L1826.56 511.149L1826.56 511.147L1826.56 511.145L1826.56 511.143L1826.56 511.141L1826.55 511.139L1826.55 511.137L1826.55 511.135L1826.55 511.134L1826.55 511.132L1826.54 511.13L1826.54 511.128L1826.54 511.126L1826.54 511.124L1826.54 511.122L1826.53 511.12L1826.53 511.118L1826.53 511.116L1826.53 511.114L1826.53 511.112L1826.52 511.11L1826.52 511.108L1826.52 511.106L1826.52 511.104L1826.52 511.102L1826.51 511.1L1826.51 511.098L1826.51 511.096L1826.51 511.095L1826.51 511.093L1826.5 511.091L1826.5 511.089L1826.5 511.087L1826.5 511.085L1826.5 511.083L1826.5 511.081L1826.49 511.079L1826.49 511.077L1826.49 511.075L1826.49 511.073L1826.49 511.071L1826.48 511.069L1826.48 511.067L1826.48 511.065L1826.48 511.063L1826.48 511.061L1826.47 511.059L1826.47 511.057L1826.47 511.055L1826.47 511.053L1826.47 511.052L1826.46 511.05L1826.46 511.048L1826.46 511.046L1826.46 511.044L1826.46 511.042L1826.45 511.04L1826.45 511.038L1826.45 511.036L1826.45 511.034L1826.45 511.032L1826.44 511.03L1826.44 511.028L1826.44 511.026L1826.44 511.024L1826.44 511.022L1826.43 511.02L1826.43 511.018L1826.43 511.016L1826.43 511.014L1826.43 511.012L1826.42 511.01L1826.42 511.008L1826.42 511.007L1826.42 511.005L1826.42 511.003L1826.41 511.001L1826.41 510.999L1826.41 510.997L1826.41 510.995L1826.41 510.993L1826.41 510.991L1826.4 510.989L1826.4 510.987L1826.4 510.985L1826.4 510.983L1826.4 510.981L1826.39 510.979L1826.39 510.977L1826.39 510.975L1826.39 510.973L1826.39 510.971L1826.38 510.969L1826.38 510.967L1826.38 510.965L1826.38 510.963L1826.38 510.962L1826.37 510.96L1826.37 510.958L1826.37 510.956L1826.37 510.954L1826.37 510.952L1826.36 510.95L1826.36 510.948L1826.36 510.946L1826.36 510.944L1826.36 510.942L1826.35 510.94L1826.35 510.938L1826.35 510.936L1826.35 510.934L1826.35 510.932L1826.34 510.93L1826.34 510.928L1826.34 510.926L1826.34 510.924L1826.34 510.922L1826.33 510.92L1826.33 510.918L1826.33 510.916L1826.33 510.914L1826.33 510.912L1826.32 510.911L1826.32 510.909L1826.32 510.907L1826.32 510.905L1826.32 510.903L1826.31 510.901L1826.31 510.899L1826.31 510.897L1826.31 510.895L1826.31 510.893L1826.31 510.891L1826.3 510.889L1826.3 510.887L1826.3 510.885L1826.3 510.883L1826.3 510.881L1826.29 510.879L1826.29 510.877L1826.29 510.875L1826.29 510.873L1826.29 510.871L1826.28 510.869L1826.28 510.867L1826.28 510.865L1826.28 510.863L1826.28 510.861L1826.27 510.86L1826.27 510.858L1826.27 510.856L1826.27 510.854L1826.27 510.852L1826.26 510.85L1826.26 510.848L1826.26 510.846L1826.26 510.844L1826.26 510.842L1826.25 510.84L1826.25 510.838L1826.25 510.836L1826.25 510.834L1826.25 510.832L1826.24 510.83L1826.24 510.828L1826.24 510.826L1826.24 510.824L1826.24 510.822L1826.23 510.82L1826.23 510.818L1826.23 510.816L1826.23 510.814L1826.23 510.812L1826.22 510.81L1826.22 510.808L1826.22 510.807L1826.22 510.805L1826.22 510.803L1826.21 510.801L1826.21 510.799L1826.21 510.797L1826.21 510.795L1826.21 510.793L1826.21 510.791L1826.2 510.789L1826.2 510.787L1826.2 510.785L1826.2 510.783L1826.2 510.781L1826.19 510.779L1826.19 510.777L1826.19 510.775L1826.19 510.773L1826.19 510.771L1826.18 510.769L1826.18 510.767L1826.18 510.765L1826.18 510.763L1826.18 510.761L1826.17 510.759L1826.17 510.757L1826.17 510.755L1826.17 510.754L1826.17 510.752L1826.16 510.75L1826.16 510.748L1826.16 510.746L1826.16 510.744L1826.16 510.742L1826.15 510.74L1826.15 510.738L1826.15 510.736L1826.15 510.734L1826.15 510.732L1826.14 510.73L1826.14 510.728L1826.14 510.726L1826.14 510.724L1826.14 510.722L1826.13 510.72L1826.13 510.718L1826.13 510.716L1826.13 510.714L1826.13 510.712L1826.12 510.71L1826.12 510.708L1826.12 510.706L1826.12 510.704L1826.12 510.703L1826.11 510.701L1826.11 510.699L1826.11 510.697L1826.11 510.695L1826.11 510.693L1826.1 510.691L1826.1 510.689L1826.1 510.687L1826.1 510.685L1826.1 510.683L1826.1 510.681L1826.09 510.679L1826.09 510.677L1826.09 510.675L1826.09 510.673L1826.09 510.671L1826.08 510.669L1826.08 510.667L1826.08 510.665L1826.08 510.663L1826.08 510.661L1826.07 510.659L1826.07 510.657L1826.07 510.655L1826.07 510.653L1826.07 510.652L1826.06 510.65L1826.06 510.648L1826.06 510.646L1826.06 510.644L1826.06 510.642L1826.05 510.64L1826.05 510.638L1826.05 510.636L1826.05 510.634L1826.05 510.632L1826.04 510.63L1826.04 510.628L1826.04 510.626L1826.04 510.624L1826.04 510.622L1826.03 510.62L1826.03 510.618L1826.03 510.616L1826.03 510.614L1826.03 510.612L1826.02 510.61L1826.02 510.608L1826.02 510.606L1826.02 510.604L1826.02 510.603L1826.01 510.601L1826.01 510.599L1826.01 510.597L1826.01 510.595L1826.01 510.593L1826.01 510.591L1826 510.589L1826 510.587L1826 510.585L1826 510.583L1826 510.581L1825.99 510.579L1825.99 510.577L1825.99 510.575L1825.99 510.573L1825.99 510.571L1825.98 510.569L1825.98 510.567L1825.98 510.565L1825.98 510.563L1825.98 510.561L1825.97 510.559L1825.97 510.557L1825.97 510.556L1825.97 510.554L1825.97 510.552L1825.96 510.55L1825.96 510.548L1825.96 510.546L1825.96 510.544L1825.96 510.542L1825.95 510.54L1825.95 510.538L1825.95 510.536L1825.95 510.534L1825.95 510.532L1825.94 510.53L1825.94 510.528L1825.94 510.526L1825.94 510.524L1825.94 510.522L1825.93 510.52L1825.93 510.518L1825.93 510.516L1825.93 510.514L1825.93 510.513L1825.92 510.511L1825.92 510.509L1825.92 510.507L1825.92 510.505L1825.92 510.503L1825.92 510.501L1825.91 510.499L1825.91 510.497L1825.91 510.495L1825.91 510.493L1825.91 510.491L1825.9 510.489L1825.9 510.487L1825.9 510.485L1825.9 510.483L1825.9 510.481L1825.89 510.479L1825.89 510.477L1825.89 510.475L1825.89 510.473L1825.89 510.472L1825.88 510.47L1825.88 510.468L1825.88 510.466L1825.88 510.464L1825.88 510.462L1825.87 510.46L1825.87 510.458L1825.87 510.456L1825.87 510.454L1825.87 510.452L1825.86 510.45L1825.86 510.448L1825.86 510.446L1825.86 510.444L1825.86 510.442L1825.85 510.44L1825.85 510.438L1825.85 510.436L1825.85 510.434L1825.85 510.433L1825.84 510.431L1825.84 510.429L1825.84 510.427L1825.84 510.425L1825.84 510.423L1825.84 510.421L1825.83 510.419L1825.83 510.417L1825.83 510.415L1825.83 510.413L1825.83 510.411L1825.82 510.409L1825.82 510.407L1825.82 510.405L1825.82 510.403L1825.82 510.401L1825.81 510.399L1825.81 510.398L1825.81 510.396L1825.81 510.394L1825.81 510.392L1825.8 510.39L1825.8 510.388L1825.8 510.386L1825.8 510.384L1825.8 510.382L1825.79 510.38L1825.79 510.378L1825.79 510.376L1825.79 510.374L1825.79 510.372L1825.78 510.37L1825.78 510.368L1825.78 510.366L1825.78 510.364L1825.78 510.363L1825.77 510.361L1825.77 510.359L1825.77 510.357L1825.77 510.355L1825.77 510.353L1825.77 510.351L1825.76 510.349L1825.76 510.347L1825.76 510.345L1825.76 510.343L1825.76 510.341L1825.75 510.339L1825.75 510.337L1825.75 510.335L1825.75 510.333L1825.75 510.331L1825.74 510.33L1825.74 510.328L1825.74 510.326L1825.74 510.324L1825.74 510.322L1825.73 510.32L1825.73 510.318L1825.73 510.316L1825.73 510.314L1825.73 510.312L1825.72 510.31L1825.72 510.308L1825.72 510.306L1825.72 510.304L1825.72 510.302L1825.71 510.301L1825.71 510.299L1825.71 510.297L1825.71 510.295L1825.71 510.293L1825.18 509.769L1824.53 510.118C1821.9 511.52 1819.08 512.143 1816.05 512.001L1816.03 512L1816.02 512C1812.58 511.941 1809.34 511.454 1806.29 510.542L1805.47 510.299L1805.1 511.061C1798.12 525.362 1787.61 536.201 1773.56 543.601C1765.1 547.436 1757.22 548.627 1749.88 547.258C1742.59 545.895 1735.73 541.977 1729.33 535.415C1728.01 532.762 1726.7 530.136 1725.39 527.549L1724.64 526.057L1723.68 527.427C1711.73 544.509 1699.98 561.72 1688.42 579.069C1681.82 579.916 1676.35 578.977 1671.94 576.349C1667.46 573.676 1663.95 569.187 1661.48 562.757C1658.48 537.976 1662.11 514.204 1672.41 491.421C1679.15 477.284 1685.81 463.287 1692.4 449.429L1690.8 448.282C1669.29 469.111 1649.27 491.142 1630.72 514.376L1630.71 514.387L1630.7 514.398C1624.24 522.973 1618.54 532.02 1613.61 541.54L1613.45 541.851L1613.52 542.193C1614.46 546.98 1613.91 550.036 1612.33 551.754C1610.79 553.427 1607.96 554.171 1603.43 553.551C1597.5 548.372 1594.19 541.837 1593.5 533.912L1593.5 533.9L1593.49 533.888C1591.36 514.898 1593.34 496.381 1599.44 478.334C1619.32 424.926 1647.58 376.708 1684.25 333.666C1691.57 325.856 1699.27 318.621 1707.38 311.982C1710.53 311.84 1713.57 312.311 1716.54 313.396C1723.6 318.214 1728.95 324.55 1732.59 332.42L1732.63 332.491L1732.67 332.557C1732.92 332.926 1733 333.235 1733 333.5C1733 333.758 1732.92 334.058 1732.69 334.415C1707.64 366.461 1682.97 398.787 1658.7 431.403L1658.68 431.426L1658.66 431.451C1651.59 442.209 1644.91 453.227 1638.63 464.507C1635.29 470.291 1633.92 476.495 1634.5 483.089L1634.7 485.267L1636.22 483.695Z" fill="black" stroke="white" stroke-width="2"/>
<path opacity="0.99" d="M1525.96 387.71L1525.69 386.844L1524.81 387.019C1524.36 387.106 1523.93 387.292 1523.58 387.638C1523.41 387.81 1523.28 388.004 1523.19 388.21C1505.23 394.03 1489.75 403.735 1476.78 417.309L1476.74 417.349L1476.71 417.392C1474.45 420.345 1473.72 423.647 1474.52 427.22L1474.71 428.025L1475.53 427.999C1511.51 426.867 1543.77 437.284 1572.35 459.262C1579.76 466.239 1584.36 473.817 1586.22 481.992C1588.08 490.175 1587.22 499.043 1583.57 508.625C1577.63 522.496 1569.69 535.065 1559.76 546.327C1541.61 565.654 1521.83 582.937 1500.42 598.185L1500.41 598.19L1500.41 598.195C1469.74 620.843 1436.17 638.295 1399.68 650.552C1386.2 655.008 1372.77 655.012 1359.37 650.568C1353.38 647.839 1348.89 644.146 1345.86 639.508C1342.82 634.873 1341.19 629.232 1341 622.542C1342.25 611.29 1346.02 600.967 1352.33 591.562C1368.34 568.238 1387.76 548.151 1410.59 531.309C1418.3 525.799 1425.96 520.308 1433.55 514.838C1448.15 506.208 1463.11 498.057 1478.45 490.394L1478.46 490.389C1487.38 485.799 1496.8 483.833 1506.76 484.486C1512.35 486.998 1516.28 490.347 1518.62 494.494C1520.91 498.535 1521.76 503.431 1521.09 509.244C1496.02 517.37 1473.14 529.347 1452.43 545.174C1428.73 559.677 1406.85 576.715 1386.8 596.284L1386.77 596.32L1386.73 596.359C1381.66 602.44 1376.96 608.813 1372.66 615.456L1372.62 615.521L1372.59 615.591C1370.58 620.075 1370.11 623.997 1371.53 627.202C1372.95 630.418 1376.12 632.619 1380.72 633.96L1380.94 634.024L1381.17 633.986C1394.44 631.726 1406.88 627.184 1418.5 620.364C1440.13 607.909 1460.17 593.381 1478.63 576.78C1488.7 569.549 1498.38 561.709 1507.66 553.25C1526.04 537.551 1542.25 519.997 1556.31 500.587L1556.32 500.576C1558.78 497.082 1560.02 493.568 1559.93 490.052C1559.84 486.533 1558.42 483.135 1555.78 479.871L1555.7 479.774L1555.6 479.699C1546.78 473.091 1536.99 468.376 1526.26 465.533L1526.25 465.532C1505.35 460.091 1484.08 457.085 1462.48 456.512C1456.42 449.085 1450.71 441.407 1445.35 433.47C1443.17 429.681 1442.53 425.646 1443.45 421.334C1447.24 413.767 1451.52 406.514 1456.3 399.597C1482.98 366.148 1517.57 346.789 1560.12 341.492L1560.44 341.452L1560.68 341.234C1564.68 337.527 1569.28 336.263 1574.56 337.426C1579.58 341.387 1582.56 346.608 1583.51 353.144L1583.52 353.208L1583.54 353.27C1584.32 356.063 1584.34 358.54 1583.66 360.737C1582.98 362.924 1581.58 364.915 1579.39 366.704C1567.91 374.842 1557.68 384.397 1548.73 395.367L1548.69 395.405L1548.67 395.446C1544.95 401.037 1543.05 407.202 1543 413.91C1542.21 414.327 1541.39 414.671 1540.54 414.942C1532.76 411.866 1528.27 406.244 1527.01 397.971C1527.32 394.485 1526.97 391.066 1525.96 387.71Z" fill="black" stroke="white" stroke-width="2"/>
<path fill-rule="evenodd" clip-rule="evenodd" d="M1524 389C1524.06 388.46 1524.39 388.12 1525 388C1525.99 391.27 1526.32 394.6 1526 398C1525.33 395 1524.67 392 1524 389Z" fill="#D04407"/>
<path fill-rule="evenodd" clip-rule="evenodd" d="M1926 410H1930C1922.78 435.77 1911.28 459.44 1895.5 481C1892.33 484.17 1889.17 487.33 1886 490.5C1884.15 491.63 1882.15 492.13 1880 492C1879.83 488.65 1880 485.32 1880.5 482C1887.33 452.65 1902.5 428.65 1926 410Z" fill="#D04407"/>
<path fill-rule="evenodd" clip-rule="evenodd" d="M1803 432C1803.54 432.06 1803.88 432.39 1804 433C1796.09 448.23 1791.09 464.4 1789 481.5C1789.29 485.41 1789.96 489.24 1791 493C1782.1 508.74 1771.1 522.91 1758 535.5C1751.29 540.05 1747.96 538.39 1748 530.5C1750.71 514.37 1756.21 499.21 1764.5 485C1775.23 465.77 1788.06 448.11 1803 432Z" fill="#D04407"/>
</g>
<defs>
<clipPath id="clip0_152_985">
<rect width="2088" height="688" fill="white"/>
</clipPath>
</defs>
</svg>
